HIERARCHY
ROOT pelvis
{
  OFFSET 0 100 0
  CHANNELS 6 Xposition Yposition Zposition Zrotation Xrotation Yrotation
  JOINT pelvis_right_femur
  {
    OFFSET -10.78128 -3.44521 -0.5502486
    CHANNELS 3 Zrotation Xrotation Yrotation
    JOINT right_femur_tibia
    {
      OFFSET -0.8047443 -44.0398 -0.1307829
      CHANNELS 3 Zrotation Xrotation Yrotation
      JOINT right_tibia_foot
      {
        OFFSET 3.006224 -47.83518 -5
        CHANNELS 3 Zrotation Xrotation Yrotation
        End Site
        {
          OFFSET 0 -5 15
        }
      }
    }
  }
  JOINT pelvis_left_femur
  {
    OFFSET 10.78128 -3.44521 -0.5502486
    CHANNELS 3 Zrotation Xrotation Yrotation
    JOINT left_femur_tibia
    {
      OFFSET 0.8047443 -44.0398 -0.1307829
      CHANNELS 3 Zrotation Xrotation Yrotation
      JOINT left_tibia_foot
      {
        OFFSET -4.370144 -48.10324 -4.275266
        CHANNELS 3 Zrotation Xrotation Yrotation
        End Site
        {
          OFFSET 0 -5 15
        }
      }
    }
  }
  JOINT pelvis_spine1
  {
    OFFSET 0 6.468898 -3.129235
    CHANNELS 3 Zrotation Xrotation Yrotation
    JOINT spine1
    {
      OFFSET 0 23.15396 4.99043
      CHANNELS 3 Zrotation Xrotation Yrotation
      JOINT spine2
      {
        OFFSET 0 20.79997 -5.064912
        CHANNELS 3 Zrotation Xrotation Yrotation
        JOINT neck
        {
          OFFSET 0 14.38658 9.616178
          CHANNELS 3 Zrotation Xrotation Yrotation
          End Site
          {
            OFFSET 0 20 0
          }
        }
      }
      JOINT right_manubrium
      {
        OFFSET -5.722621 16.35077 3.967754
        CHANNELS 3 Zrotation Xrotation Yrotation
        JOINT right_clavicle
        {
          OFFSET -13.16364 1.694482 -4.693211
          CHANNELS 3 Zrotation Xrotation Yrotation
          JOINT right_humerus
          {
            OFFSET -28.5034 -0.3100689 -2.792744
            CHANNELS 3 Zrotation Xrotation Yrotation
            JOINT right_radius
            {
              OFFSET -25.15693 0.02248979 -1.271978
              CHANNELS 3 Zrotation Xrotation Yrotation
              End Site
              {
                OFFSET -15 0 0
              }
            }
          }
        }
      }
      JOINT left_manubrium
      {
        OFFSET 5.722621 16.35077 3.967754
        CHANNELS 3 Zrotation Xrotation Yrotation
        JOINT left_clavicle
        {
          OFFSET 13.16364 1.694482 -4.693211
          CHANNELS 3 Zrotation Xrotation Yrotation
          JOINT left_humerus
          {
            OFFSET 29.39168 -1.063119 -2.237045
            CHANNELS 3 Zrotation Xrotation Yrotation
            JOINT left_radius
            {
              OFFSET 24.59957 -0.9528479 0.9047498
              CHANNELS 3 Zrotation Xrotation Yrotation
              End Site
              {
                OFFSET 15 -0 -0
              }
            }
          }
        }
      }
    }
  }
}
MOTION
Frames: 21
Frame Time: 0.0416666666667
0 103.5113 0 2.789272 -0.00801435 0.02455028 2.809022 -15.73854 10.93363 -0 38.04079 -0 -4.092084 -16.9313 -2.862567 -9.327394 8.555483 -22.41039 -0 5.175232 -0 22.51367 -8.301322 30.12016 -4.395667 -2.60549 5.277584 1.938598 10.47327 -6.820776 1.979697 21.99709 6.323814 2.984549 -26.17114 10.10523 5.750881 -22.00799 11.16582 86.64376 39.48864 -16.4664 -0 0 16.47091 -6.100648 6.750617 5.243569 3.595021 -17.5264 -4.289933 -90.57135 23.53177 19.97498 0 0 -17.68541 15.59172 12.29293 -1.484754
0.3800657 103.4392 1.556135 1.978266 0.8286524 0.06291418 4.04861 -18.23999 11.73673 -0 38.67942 -0 -4.66265 -16.3159 -2.615686 -8.83757 8.409384 -22.38126 -0 5.212361 -0 22.57184 -9.015318 30.46869 -4.122009 -2.359533 5.143957 2.068685 10.32619 -6.923254 1.900802 21.75474 6.507363 3.163712 -26.58085 10.09581 5.63937 -21.65778 11.21022 86.81983 39.28045 -16.81552 -0 0 16.06054 -6.31933 6.998302 5.152693 3.842958 -17.78188 -4.074885 -90.48185 23.18001 19.57923 0 0 -18.07269 15.51142 12.23205 -1.801531
0.6699657 102.7176 4.203479 1.530018 -0.09104113 0.1930615 3.572102 -23.13794 3.291972 -0 25.65605 -0 -8.1701 -10.70619 0.1166992 -7.753734 11.2429 -18.95706 -0 6.573179 -0 16.4639 -15.17161 25.15601 -3.458387 -1.802685 5.116383 1.932812 10.3907 -7.080561 1.590796 21.25105 6.863318 3.800356 -26.51111 9.501326 5.025742 -21.15598 11.27185 87.66586 38.60988 -17.54055 -0 0 15.31598 -7.773979 7.661478 4.789216 4.580132 -18.96572 -4.209198 -89.71727 21.02579 18.42396 0 0 -19.15431 15.96508 11.66846 -3.617575
0.9600235 102.1105 6.928581 1.005971 0.679437 0.3125745 4.262047 -24.70752 4.295188 -0 25.72202 -0 -7.965566 -10.41072 -0.09828774 -7.379109 11.22825 -19.08945 -0 6.155304 -0 15.12033 -16.41098 25.06435 -3.003173 -1.497834 5.109162 1.938503 10.40614 -7.266315 1.410738 20.92525 6.972994 4.095219 -26.55328 9.104998 4.608419 -20.81204 11.30646 88.24403 38.03517 -18.21101 -0 0 14.75909 -8.537361 8.059105 4.420353 5.056856 -19.78062 -4.249263 -89.44027 19.85778 17.89811 0 0 -19.88756 16.1023 11.5411 -4.566899
1.244026 101.4472 10.04873 0.4576839 1.27555 0.4953809 4.98519 -27.49154 3.789143 -0 23.45851 -0 -8.708574 -8.439185 0.3542988 -6.951719 11.58361 -18.09467 -0 7.177424 -0 14.82106 -17.1036 24.04396 -2.76997 -1.368618 5.214746 1.76355 10.58727 -7.31918 1.271691 20.81998 6.988168 4.319464 -26.14657 8.680646 4.232777 -20.77481 11.30259 88.71051 37.61829 -18.51269 -0 0 14.59141 -9.32395 8.267953 4.166993 5.351183 -20.42579 -4.523188 -89.1315 18.74939 17.58138 0 0 -20.25711 16.4258 11.36787 -5.506054
1.531871 100.7997 13.47181 -0.1035098 1.976751 0.7465652 5.79223 -29.74982 3.988268 -0 22.03921 -0 -9.071739 -6.987632 0.560305 -6.541816 11.83176 -17.51377 -0 8.079798 -0 14.17008 -17.73182 23.22585 -2.591422 -1.29752 5.326787 1.614343 10.76018 -7.3664 1.159557 20.7664 6.948678 4.468401 -25.74831 8.298431 3.908181 -20.78582 11.29407 89.09113 37.22402 -18.75964 -0 0 14.50396 -9.96372 8.406241 3.933279 5.564015 -20.9657 -4.781073 -88.94218 17.8693 17.44542 0 0 -20.45994 16.66583 11.29144 -6.22547
1.827527 100.19 17.26145 -0.6446154 2.571981 1.081007 6.58912 -31.66855 4.006074 -0 20.61606 -0 -9.628493 -5.473507 0.8909966 -6.157688 12.12755 -16.80442 -0 9.689635 -0 13.80048 -17.81566 22.1699 -2.486471 -1.297843 5.48408 1.40927 10.98588 -7.375328 1.05318 20.79212 6.854078 4.589821 -25.16431 7.868817 3.59801 -20.90681 11.26907 89.4059 36.83305 -18.88152 -0 0 14.58286 -10.61615 8.467682 3.737145 5.708079 -21.4639 -5.139651 -88.77543 17.02004 17.44715 0 0 -20.48853 16.91716 11.23298 -6.868296
2.136087 99.65927 21.45637 -1.201159 3.079965 1.506268 7.3689 -33.11545 3.976648 -0 19.3338 -0 -10.24363 -4.024673 1.210266 -5.750153 12.45134 -16.0459 -0 11.93748 -0 13.11259 -17.59898 20.76535 -2.40494 -1.330659 5.654694 1.206118 11.22019 -7.379592 0.9482771 20.84556 6.725291 4.686614 -24.52652 7.41944 3.303594 -21.06405 11.24342 89.66448 36.40583 -18.95667 -0 0 14.73481 -11.24551 8.492312 3.563322 5.809344 -21.93685 -5.519944 -88.6682 16.23194 17.57388 0 0 -20.38568 17.1105 11.21935 -7.390065
2.462856 99.25373 26.07906 -1.75594 3.416248 2.010417 8.096204 -33.84518 3.867252 -0 18.42923 -0 -10.95614 -2.737734 1.496105 -5.3266 12.70176 -15.21729 -0 15.06566 -0 12.1407 -16.89406 19.00072 -2.350393 -1.400568 5.848122 0.9889384 11.47696 -7.372601 0.8370348 20.93066 6.560673 4.772816 -23.78054 6.920685 3.020005 -21.27227 11.21652 89.8572 35.91918 -18.96173 -0 0 14.9887 -11.89303 8.477235 3.426007 5.868509 -22.40302 -5.952851 -88.60602 15.45785 17.83326 0 0 -20.13551 17.24915 11.23369 -7.795861
2.812323 99.02693 31.13076 -2.289068 3.513209 2.556431 8.730944 -33.67676 3.664129 -0 17.95558 -0 -11.73365 -1.644107 1.688858 -4.880903 12.73697 -14.27882 -0 19.32133 -0 10.74411 -15.64467 16.84974 -2.304444 -1.493121 6.054363 0.7787174 11.74258 -7.36273 0.7176979 21.02656 6.372751 4.851821 -22.9753 6.387509 2.750388 -21.51105 11.19741 89.98039 35.35721 -18.91175 -0 0 15.32123 -12.54708 8.439645 3.327318 5.892284 -22.86497 -6.406302 -88.60983 14.70541 18.23582 0 0 -19.73519 17.30969 11.28171 -8.067721
3.186521 99.03513 36.56976 -2.740675 3.282469 3.0724 9.206054 -32.41924 3.359565 -0 17.907 -0 -12.51552 -0.7964389 1.731299 -4.432087 12.32566 -13.19994 -0 24.89808 -0 8.952331 -13.80965 14.44123 -2.2631 -1.605147 6.273671 0.5783606 12.01734 -7.347105 0.5872688 21.12623 6.168523 4.930457 -22.11179 5.819415 2.498621 -21.78288 11.19101 90.021 34.70645 -18.79319 -0 0 15.74322 -13.21445 8.385142 3.280294 5.880374 -23.32444 -6.877635 -88.68969 13.96538 18.80067 0 0 -19.16601 17.28221 11.35694 -8.191302
3.581894 99.33546 42.30869 -3.023881 2.645339 3.458724 9.446056 -29.95123 2.949963 -0 18.09435 -0 -13.21641 -0.221408 1.584714 -4.006801 11.18282 -11.94354 -0 31.88634 -0 6.923362 -11.45132 12.0216 -2.215803 -1.726556 6.500951 0.3999231 12.29444 -7.324481 0.4458815 21.21572 5.962007 5.011327 -21.22707 5.235519 2.269812 -22.0829 11.20494 89.97324 33.96499 -18.60248 -0 0 16.25019 -13.88567 8.328195 3.2921 5.835037 -23.7754 -7.34303 -88.86548 13.24318 19.54522 0 0 -18.41389 17.1592 11.45678 -8.160055
3.987141 99.97502 48.22139 -3.044044 1.570989 3.615543 9.386595 -26.29535 2.458404 -0 18.16271 -0 -13.73231 0.05959527 1.252432 -3.624622 9.043387 -10.51141 -0 40.03748 -0 4.944224 -8.812505 9.948795 -2.155586 -1.848948 6.732918 0.2504679 12.57023 -7.289526 0.2940702 21.28481 5.767106 5.096895 -20.34977 4.654112 2.068805 -22.41194 11.24515 89.8325 33.13647 -18.33016 -0 0 16.84372 -14.5553 8.281716 3.371812 5.757725 -24.20981 -7.78526 -89.15226 12.5399 20.48377 0 0 -17.46604 16.94001 11.57335 -7.974391
4.383691 100.9684 54.16951 -2.745238 0.1141257 3.486492 9.006191 -21.66899 1.936687 -0 17.70449 -0 -13.97922 0.02770071 0.8003726 -3.269051 5.788864 -8.978615 -0 48.58874 -0 3.329137 -6.294208 8.581261 -2.073917 -1.961382 6.964278 0.1378484 12.8394 -7.236444 0.1345107 21.32322 5.599679 5.186033 -19.52093 4.102177 1.898477 -22.76894 11.3166 89.60365 32.2357 -17.97329 -0 0 17.51656 -15.21347 8.26224 3.522779 5.651945 -24.61604 -8.180988 -89.56256 11.85928 21.62041 0 0 -16.31883 16.63224 11.69865 -7.650177
4.749714 102.2658 60.03807 -2.155366 -1.570092 3.090613 8.351148 -16.46984 1.451296 -0 16.4601 -0 -13.93021 -0.33622 0.3431539 -2.875804 1.568897 -7.499622 -0 56.22336 -0 2.269372 -4.30864 8.148625 -1.963978 -2.053714 7.189467 0.06678562 13.09757 -7.158873 -0.02910218 21.32432 5.473644 5.275364 -18.7778 3.606527 1.759186 -23.1527 11.42131 89.29853 31.28434 -17.53306 -0 0 18.25685 -15.85209 8.285149 3.744452 5.522372 -24.9821 -8.510485 -90.09964 11.20247 22.94529 0 0 -14.98023 16.25015 11.82317 -7.215212
5.066693 103.7302 65.75936 -1.397081 -3.262419 2.510936 7.542738 -11.1511 1.057881 -0 14.48564 -0 -13.6302 -1.06037 -0.01391276 -2.353852 -3.208207 -6.244895 -0 61.37428 -0 1.737846 -3.068407 8.670645 -1.820006 -2.116792 7.401933 0.03979603 13.34043 -7.051953 -0.1917599 21.28529 5.399629 5.358546 -18.15512 3.193617 1.648086 -23.55914 11.55785 88.93732 30.31095 -17.01908 -0 0 19.04383 -16.46311 8.364295 4.029544 5.375363 -25.29653 -8.756112 -90.75581 10.57013 24.43083 0 0 -13.47293 15.81407 11.93855 -6.709963
5.327194 105.1446 71.31009 -0.6519292 -4.743189 1.847509 6.755214 -6.061224 0.7858074 -0 12.1298 -0 -13.16661 -2.204749 -0.2346285 -1.620793 -8.054177 -5.304924 -0 62.75207 -0 1.52762 -2.506085 9.963437 -1.63862 -2.14434 7.594891 0.05628842 13.56449 -6.913319 -0.3480034 21.20816 5.382863 5.427865 -17.67746 2.884253 1.55977 -23.98086 11.72097 88.54486 29.34632 -16.4483 -0 0 19.8499 -17.04022 8.509129 4.365384 5.218314 -25.55056 -8.906226 -91.51056 9.962317 26.03175 0 0 -11.83427 15.34691 12.03802 -6.18118
5.540971 106.2558 76.69107 -0.1017932 -5.831795 1.177336 6.166727 -1.369522 0.6363491 -0 9.839649 -0 -12.6224 -3.871099 -0.3523362 -0.6246851 -12.61246 -4.634755 -0 59.7553 -0 1.393679 -2.386443 11.70139 -1.418914 -2.133512 7.761694 0.1130321 13.76717 -6.74385 -0.4924529 21.09934 5.422723 5.475412 -17.35776 2.691644 1.487207 -24.40661 11.90221 88.14738 28.4203 -15.8439 -0 0 20.64235 -17.57836 8.723838 4.734995 5.05914 -25.73893 -8.955318 -92.33227 9.380369 27.68861 0 0 -10.11328 14.87136 12.11712 -5.676572
5.734836 106.8407 81.91337 0.1203331 -6.387981 0.5460349 5.903773 2.876844 0.581912 -0 7.982871 -0 -12.05253 -6.1627 -0.4140998 0.6412698 -16.71832 -4.071772 -0 52.58319 -0 1.185333 -2.473607 13.49118 -1.162775 -2.085095 7.896609 0.2044923 13.9471 -6.547328 -0.6207095 20.96853 5.513311 5.494854 -17.19573 2.619431 1.423291 -24.82249 12.09131 87.76794 27.55753 -15.23126 -0 0 21.3881 -18.07426 9.006727 5.12036 4.905359 -25.86026 -8.904675 -93.18197 8.827666 29.33492 0 0 -8.364821 14.40665 12.1729 -5.237682
5.945418 106.7805 87.00516 -0.03524516 -6.326355 -0.02148591 5.99082 6.641576 0.5580994 -0 6.811739 -0 -11.49595 -9.090774 -0.4277651 2.103549 -20.28622 -3.415555 -0 42.22641 -0 0.8968806 -2.615231 14.95543 -0.8746661 -2.002731 7.995346 0.3235992 14.10417 -6.329452 -0.729983 20.82695 5.645131 5.482479 -17.17976 2.662068 1.362162 -25.21382 12.27791 87.42314 26.77498 -14.6335 -0 0 22.05836 -18.52643 9.350874 5.505686 4.76326 -25.91632 -8.761408 -94.01849 8.309837 30.90553 0 0 -6.642895 13.96674 12.20263 -4.89524
6.211334 106.12 92.03654 -0.5014651 -5.694152 -0.5176492 6.296924 9.839715 0.4585759 -0 6.521736 -0 -11.00995 -12.45038 -0.3496299 3.540749 -23.15031 -2.580576 -0 30.48626 -0 0.6325235 -2.73854 15.86022 -0.5613478 -1.891763 8.055409 0.4625456 14.23925 -6.096615 -0.8194537 20.68571 5.80703 5.437503 -17.29014 2.806417 1.300145 -25.56755 12.45325 87.12144 26.08116 -14.06742 -0 0 22.63268 -18.93505 9.74514 5.880121 4.637157 -25.9107 -8.537105 -94.80319 7.833957 32.34388 0 0 -4.995093 13.55965 12.20261 -4.666863
